<?xml version="1.0" encoding="UTF-8" standalone="no"?>
<!-- Created with Inkscape (http://www.inkscape.org/) -->

<svg
   xmlns:dc="http://purl.org/dc/elements/1.1/"
   xmlns:cc="http://creativecommons.org/ns#"
   xmlns:rdf="http://www.w3.org/1999/02/22-rdf-syntax-ns#"
   xmlns:svg="http://www.w3.org/2000/svg"
   xmlns="http://www.w3.org/2000/svg"
   xmlns:sodipodi="http://sodipodi.sourceforge.net/DTD/sodipodi-0.dtd"
   xmlns:inkscape="http://www.inkscape.org/namespaces/inkscape"
   width="64"
   height="64"
   id="svg3432"
   version="1.1"
   inkscape:version="0.91 r13725"
   viewBox="0 0 64 64"
   sodipodi:docname="warning.svg">
  <defs
     id="defs3434">
    <inkscape:path-effect
       effect="spiro"
       id="path-effect3662"
       is_visible="true" />
    <inkscape:path-effect
       effect="spiro"
       id="path-effect3646"
       is_visible="true" />
  </defs>
  <sodipodi:namedview
     id="base"
     pagecolor="#ffffff"
     bordercolor="#666666"
     borderopacity="1.0"
     inkscape:pageopacity="0.0"
     inkscape:pageshadow="2"
     inkscape:zoom="2.4237742"
     inkscape:cx="74.620767"
     inkscape:cy="43.262343"
     inkscape:current-layer="layer1"
     showgrid="true"
     inkscape:document-units="px"
     inkscape:grid-bbox="true"
     inkscape:object-paths="false"
     inkscape:snap-intersection-paths="false"
     inkscape:object-nodes="false"
     inkscape:snap-smooth-nodes="false"
     showguides="true"
     inkscape:window-width="1920"
     inkscape:window-height="1022"
     inkscape:window-x="1920"
     inkscape:window-y="30"
     inkscape:window-maximized="1" />
  <metadata
     id="metadata3437">
    <rdf:RDF>
      <cc:Work
         rdf:about="">
        <dc:format>image/svg+xml</dc:format>
        <dc:type
           rdf:resource="http://purl.org/dc/dcmitype/StillImage" />
        <dc:title></dc:title>
      </cc:Work>
    </rdf:RDF>
  </metadata>
  <g
     id="layer1"
     inkscape:label="Layer 1"
     inkscape:groupmode="layer">
    <path
       style="fill:none;fill-rule:evenodd;stroke:#808080;stroke-width:1px;stroke-linecap:butt;stroke-linejoin:miter;stroke-opacity:1"
       d="m 7.3068182,51.625 c 2.6560951,-0.176343 6.8006478,-0.638711 9.1811138,-0.56827 3.819382,0.113021 6.265227,0.425891 9.909265,0.563609 4.601838,0.173916 8.827339,-0.243694 14.361744,-0.410114 3.309614,-0.09952 4.608512,0.444073 8.8241,0.02505 2.311715,-0.229788 5.086713,0.391524 7.541959,0.389725 0,0 -0.370662,-1.261725 -2.483683,-4.853846 -0.567552,-0.964835 -2.629691,-4.349136 -4.763561,-8.123456 -0.758093,-1.34089 -3.069657,-4.641515 -5.450621,-9.365916 C 43.674016,27.787414 41.556593,23.78124 39.064317,19.953751 37.20367,17.096281 35.200441,13.990832 34.103151,11.780824 33.473803,10.513281 32.95761,9.765853 32.95761,9.765853 c 0,0 -1.71015,3.613988 -4.321557,7.130243 -2.238764,3.014494 -4.222881,6.551933 -5.352836,8.861062 -2.467751,5.042993 -4.692469,7.959437 -7.581524,12.068713 -1.92367,2.73615 -2.283143,3.487017 -3.310445,5.501924 -2.309407,4.529572 -3.4530433,5.634969 -3.7558457,6.129108 C 7.3068182,51.625 7.3068182,51.625 7.3068182,51.625 Z"
       id="path3498"
       inkscape:connector-curvature="0"
       sodipodi:nodetypes="csssscssssscsssssc" />
    <path
       style="fill:none;fill-rule:evenodd;stroke:#000000;stroke-width:1px;stroke-linecap:butt;stroke-linejoin:miter;stroke-opacity:1"
       d="m 33.761364,42.079545 c -0.616063,-0.06491 -1.248277,0.02992 -1.818182,0.272728 -0.429098,0.182817 -0.82398,0.449718 -1.141754,0.791137 -0.317773,0.341419 -0.557133,0.757958 -0.676428,1.208863 -0.184151,0.696041 -0.07201,1.458813 0.272727,2.090909 0.250017,0.458428 0.624772,0.855578 1.090909,1.090909 0.340417,0.171861 0.724506,0.254797 1.105701,0.24433 0.381196,-0.01047 0.758878,-0.113796 1.095013,-0.293888 0.67227,-0.360184 1.162087,-1.02814 1.344741,-1.768624 0.0955,-0.387168 0.111547,-0.789286 0.181818,-1.181818 0.04318,-0.241197 0.10715,-0.48278 0.09091,-0.727273 -0.02079,-0.31301 -0.173636,-0.606028 -0.377654,-0.844323 C 34.725147,42.724201 34.471391,42.53431 34.21591,42.352273 33.859926,42.098624 33.496055,41.856044 33.125,41.625"
       id="path3644"
       inkscape:original-d="m 33.761364,42.079545 c -0.222433,-0.232326 -1.640611,-0.08242 -1.818182,0.272728 -0.07184,0.14369 -1.672431,1.854249 -1.818182,2 -0.386489,0.386489 -0.212461,2.090909 0.272727,2.090909 0.217895,0 0.934666,1.247152 1.090909,1.090909 0.745606,-0.745606 2.730267,-1.002994 3.545455,-1.818182 0.01621,-0.01621 0.01417,-0.846516 0.181818,-1.181818 0.04825,-0.09651 0.209599,-0.608583 0.09091,-0.727273 -0.40033,-0.40033 -0.736814,-1.10045 -1.090909,-1.454545 C 33.764242,41.900605 33.125,42.265704 33.125,41.625"
       inkscape:connector-curvature="0"
       inkscape:path-effect="#path-effect3646" />
    <path
       style="fill:#666666;stroke:#666666;stroke-width:0.09090909"
       d="m 31.854634,47.102641 c -0.324007,-0.128521 -0.803585,-0.611796 -1.015732,-1.023562 -0.754618,-1.46467 0.260731,-3.109323 2.12199,-3.437177 0.538709,-0.09489 0.545957,-0.09325 1.014326,0.229325 0.259457,0.178695 0.546868,0.45208 0.63869,0.607523 0.15176,0.256909 0.15729,0.354468 0.06078,1.072276 -0.196001,1.457831 -0.529896,2.088962 -1.303195,2.463309 -0.421265,0.203931 -1.122456,0.244752 -1.516862,0.08831 z"
       id="path3664"
       inkscape:connector-curvature="0" />
    <path
       style="fill:#666666;stroke:#666666;stroke-width:0.09090909"
       d="m 32.425298,47.183629 c -0.656183,-0.05736 -0.838205,-0.151138 -1.268065,-0.653333 -0.816274,-0.953632 -0.738606,-2.200321 0.19218,-3.084805 0.323254,-0.307174 1.12134,-0.782164 1.12134,-0.667379 0,0.02778 0.09205,3.43e-4 0.204545,-0.06096 0.1125,-0.0613 0.387227,-0.117568 0.610505,-0.12503 0.380687,-0.01272 0.441127,0.02067 0.970881,0.536377 0.310707,0.30247 0.547003,0.578939 0.525102,0.614376 -0.0219,0.03544 -0.0633,0.323467 -0.092,0.640068 -0.0765,0.844039 -0.08992,0.939734 -0.145071,1.034774 -0.02755,0.04747 -0.100173,0.241631 -0.161384,0.431457 -0.107265,0.332648 -0.741632,1.160944 -0.887119,1.158316 -0.116788,-0.0021 -0.431232,0.107872 -0.480009,0.167889 -0.025,0.03076 -0.290909,0.03447 -0.590909,0.0083 z"
       id="path3982"
       inkscape:connector-curvature="0" />
    <path
       style="fill:#666666;stroke:#666666;stroke-width:0.09090909"
       d="m 32.353769,47.182285 c -0.55876,-0.0516 -0.652008,-0.09058 -0.988139,-0.413069 -0.684952,-0.65715 -0.957212,-1.561176 -0.69864,-2.319798 0.349398,-1.025097 1.573215,-1.894659 2.672088,-1.898606 0.329091,-0.0012 0.427366,0.05699 0.922587,0.546109 0.606845,0.599369 0.576945,0.482886 0.434679,1.693385 -0.1172,0.997219 -0.909264,2.304637 -1.396203,2.304637 -0.08616,0 -0.195525,0.03247 -0.243025,0.07216 -0.0475,0.03969 -0.364006,0.04652 -0.703347,0.01518 z"
       id="path3984"
       inkscape:connector-curvature="0" />
    <path
       style="fill:#666666;stroke:#666666;stroke-width:0.09090909"
       d="m 32.24348,47.187688 c -0.618131,-0.08632 -0.714213,-0.138974 -1.089693,-0.597198 -0.441332,-0.538587 -0.592284,-0.937064 -0.591272,-1.560809 0.002,-1.220538 1.221115,-2.373276 2.6057,-2.463791 l 0.561098,-0.03668 0.552538,0.537327 c 0.621386,0.60428 0.626307,0.624783 0.423205,1.763293 -0.144372,0.809291 -0.506095,1.598204 -0.90485,1.973465 -0.268378,0.252564 -0.782248,0.488789 -1.00211,0.460667 -0.05504,-0.007 -0.304616,-0.04136 -0.554616,-0.07627 z"
       id="path3986"
       inkscape:connector-curvature="0" />
    <path
       style="fill:#666666;stroke:#666666;stroke-width:0.09090909"
       d="m 31.988395,47.188882 c -0.218547,-0.0423 -0.477156,-0.195046 -0.702071,-0.414669 -1.583576,-1.546322 -0.467426,-4.058808 1.866247,-4.200973 l 0.636363,-0.03877 0.479518,0.477897 c 0.263735,0.262844 0.505038,0.579582 0.536231,0.703862 0.08738,0.348157 -0.139427,1.617485 -0.390681,2.186436 -0.503395,1.139908 -1.219546,1.519658 -2.425607,1.286213 z"
       id="path3988"
       inkscape:connector-curvature="0" />
    <path
       style="fill:#666666;stroke:#666666;stroke-width:0.00390625"
       d="m 33.377116,40.705999 c -0.16965,0.0033 -0.332928,0.09912 -0.418997,0.245298 -0.02923,0.046 -0.05742,0.09356 -0.08717,0.138666 -0.950018,0.10358 -1.872022,0.502585 -2.576201,1.152296 -0.287097,0.263688 -0.536421,0.568564 -0.734523,0.904434 -0.324045,0.544895 -0.50914,1.173363 -0.519346,1.807986 -0.0035,0.198357 0.0054,0.397464 0.03314,0.59393 0.03581,0.190449 0.192436,0.35071 0.382306,0.39 0.10061,0.02127 0.204344,0.01041 0.306406,0.0138 0.263238,-2.7e-5 0.526543,0.0017 0.78974,-7.04e-4 0.198817,-0.0064 0.384712,-0.144949 0.447925,-0.333508 0.03415,-0.09212 0.03416,-0.19291 0.01533,-0.288335 -0.0189,-0.125515 -0.01203,-0.252962 -0.0097,-0.379363 0.02742,-0.354743 0.16147,-0.698245 0.369941,-0.985619 0.142102,-0.195948 0.318132,-0.367224 0.516089,-0.506315 0.305373,-0.213033 0.661692,-0.348748 1.028971,-0.405893 0.134899,-0.0273 0.271587,-0.04686 0.409427,-0.04865 0.09158,-0.0026 0.183102,-0.007 0.274548,-0.01255 0.17787,0.179595 0.361904,0.353486 0.530365,0.542122 0.08233,0.09811 0.165656,0.196782 0.230751,0.307495 0.01379,0.146867 -0.0059,0.294016 -0.02112,0.439965 -0.03502,0.286253 -0.0892,0.570043 -0.157958,0.850059 -0.0055,0.02211 -0.01405,0.056 -0.02108,0.08277 -0.02535,0.09355 -0.05619,0.188687 -0.04415,0.286953 0.01628,0.183783 0.142943,0.35182 0.315522,0.417371 0.113744,0.04778 0.238847,0.03192 0.358824,0.03425 0.273802,-0.0013 0.547675,3.2e-4 0.821431,-0.0028 0.191095,-0.0067 0.370239,-0.134952 0.439456,-0.313038 0.03948,-0.101361 0.0418,-0.211843 0.05865,-0.318241 0.034,-0.262487 0.06173,-0.526198 0.116596,-0.785438 0.04702,-0.236911 0.08215,-0.477869 0.07281,-0.720055 -0.01302,-0.490543 -0.206553,-0.965219 -0.501388,-1.353363 -0.254268,-0.337216 -0.579863,-0.612569 -0.921572,-0.857409 -0.401266,-0.289401 -0.812948,-0.564404 -1.23287,-0.825948 -0.08242,-0.04714 -0.177148,-0.07212 -0.272156,-0.07021 z m 0.144104,2.222809 c -0.0085,-0.0034 -0.0099,-0.0057 0,0 z"
       id="path4045"
       inkscape:connector-curvature="0" />
    <path
       style="fill:#666666;stroke:#666666;stroke-width:0.03125"
       d="m 34.265937,45.485777 c -0.345144,0.177934 -0.377262,0.621508 -0.645874,0.879089 -0.263841,0.310776 -0.673372,0.500801 -1.083863,0.439454 -0.375231,0.0064 -0.757242,-0.116626 -1.000878,-0.414708 -0.247444,-0.225929 -0.344199,-0.557401 -0.553931,-0.808742 -0.299668,-0.201107 -0.678853,-0.08954 -1.018006,-0.113953 -0.280346,-0.01035 -0.613496,0.04493 -0.730957,0.340576 -0.110137,0.356859 0.126793,0.691818 0.254296,1.011001 0.58877,1.19864 1.90205,2.044106 3.253883,1.936875 1.425312,-0.07931 2.686794,-1.128894 3.146212,-2.460903 0.150482,-0.267943 0.0922,-0.661913 -0.218698,-0.78084 -0.35187,-0.09831 -0.735577,-0.03317 -1.100176,-0.06276 -0.103131,-0.01217 -0.201305,0.01815 -0.302008,0.03491 z"
       id="path4047"
       inkscape:connector-curvature="0" />
    <path
       style="fill:#666666;stroke:#666666;stroke-width:0.08838835"
       d="m 32.784755,8.519269 c -0.622105,0.302848 -0.755271,1.108523 -1.114169,1.649663 -1.488071,2.959452 -3.452753,5.632284 -5.321328,8.354411 -1.959181,2.865305 -3.50414,5.977251 -5.09642,9.052592 -2.294939,4.301147 -5.364064,8.110856 -8.014855,12.198455 -1.696886,2.926047 -3.087216,6.072474 -5.1079301,8.771305 -0.7276075,1.113063 -1.4756453,2.21918 -2.1109122,3.387444 -0.1531383,0.594819 0.5478121,0.775989 0.9940236,0.676378 4.2171997,-0.342782 8.4600257,-0.789671 12.6823397,-0.429227 5.553091,0.45587 11.136566,0.537442 16.697719,0.1753 3.351211,-0.202883 6.703146,-0.158229 10.061515,-0.01158 2.185279,0.02168 4.369616,-0.337223 6.552131,-0.05662 1.62045,0.130977 3.269514,0.377975 4.884832,0.205747 0.635532,-0.307845 0.121353,-1.07712 -0.0138,-1.573939 C 56.513734,47.7428 54.555731,44.869401 52.858173,41.86891 50.925968,38.435259 48.765296,35.146467 46.830629,31.719055 44.791607,27.966188 42.863074,24.101903 40.536344,20.493645 38.44829,17.196959 36.279048,13.944222 34.481253,10.47493 34.059796,9.829862 33.775613,9.029449 33.14107,8.560873 33.030226,8.502343 32.906043,8.500413 32.784755,8.519273 Z m 0.237198,3.280036 c 2.69346,5.222674 6.309629,9.901366 9.044936,15.101839 1.853526,3.483881 3.665026,6.999813 5.801773,10.319865 2.142342,3.538484 4.210987,7.120889 6.297884,10.696849 0.494731,0.880194 0.98493,1.763356 1.444845,2.662353 -2.167975,-0.258488 -4.364146,-0.330199 -6.552453,-0.258025 -4.728813,0.05413 -9.462357,-0.134517 -14.185783,0.172864 -3.321447,0.0833 -6.65177,0.217421 -9.976926,0.09365 -4.456153,-0.284765 -8.93424,-0.736715 -13.395024,-0.264705 -0.785477,0.0622 -1.5703657,0.132633 -2.3567076,0.183535 1.4207316,-2.135918 2.8819376,-4.25344 4.0089646,-6.565619 2.015009,-4.165085 5.025186,-7.715842 7.494802,-11.601915 2.927414,-4.438736 4.871593,-9.453276 7.981999,-13.779851 1.575385,-2.185864 3.108811,-4.41321 4.372183,-6.797268 l 0.01951,0.03643 z"
       id="path4051"
       inkscape:connector-curvature="0" />
    <path
       style="fill:none;fill-rule:evenodd;stroke:#808080;stroke-width:1px;stroke-linecap:butt;stroke-linejoin:miter;stroke-opacity:1"
       d="M 32.800085,17.584786 C 31.983042,23.98888 33.739076,30.929505 32.69694,37.182321"
       id="path4117"
       inkscape:connector-curvature="0" />
    <path
       style="fill:#808080;stroke:#808080;stroke-width:0.10314492"
       d="m 32.227232,18.562516 c -0.371837,6.100869 0.764414,12.210596 0.101331,18.302381 0.02716,0.446305 0.960314,0.379657 0.889827,-0.1108 0.818515,-6.239276 -0.632498,-12.511584 -0.02579,-18.762102 0.330411,-0.469641 -1.165677,-0.466099 -0.887715,-0.339825 -0.02589,0.303449 -0.05177,0.606897 -0.07766,0.910346 z"
       id="path4119"
       inkscape:connector-curvature="0" />
    <path
       style="fill:#808080;stroke:#808080;stroke-width:0.10314492"
       d="m 32.529414,17.566925 c -0.458342,0.08903 -0.251167,0.803365 -0.3461,1.143257 -0.191813,4.902943 0.339546,9.794197 0.305003,14.695113 0.04709,1.223996 -0.200419,2.471147 -0.121276,3.675964 0.359552,0.168569 1.002203,0.165157 0.894057,-0.409557 0.645898,-5.255263 -0.255962,-10.533804 -0.148226,-15.802325 -0.05923,-1.039044 0.136855,-2.090702 0.05394,-3.119128 -0.106595,-0.234907 -0.435516,-0.16906 -0.637403,-0.183324 z"
       id="path4121"
       inkscape:connector-curvature="0" />
    <path
       style="fill:#808080;stroke:#808080;stroke-width:0.10314492"
       d="m 32.535458,17.578408 c -0.53904,0.03181 -0.267899,0.808071 -0.37459,1.150427 -0.26569,5.931947 0.621366,11.858354 0.170021,17.787318 -0.09774,0.374405 0.0067,0.756071 0.477339,0.645487 0.690023,0.107891 0.455392,-0.779007 0.558107,-1.18499 0.441144,-4.795002 -0.264898,-9.590451 -0.187229,-14.389893 -0.006,-1.323693 -0.01195,-2.647386 -0.01793,-3.97108 -0.208511,-0.01117 -0.416672,-0.03979 -0.625719,-0.03727 z"
       id="path4123"
       inkscape:connector-curvature="0" />
    <path
       style="fill:#808080;stroke:#808080;stroke-width:0.10314492"
       d="m 32.731675,17.58425 c -0.736272,-0.181197 -0.499556,0.677658 -0.592141,1.143916 -0.17363,5.42765 0.402888,10.847822 0.217656,16.276687 0.06324,0.7039 -0.14919,1.507174 0.133142,2.160211 0.394391,0.166257 0.936765,-0.02081 0.843894,-0.534862 0.476671,-5.558634 -0.222825,-11.12824 -0.112613,-16.694167 0,-0.794404 0,-1.588808 0,-2.383211 -0.163313,0.01047 -0.326625,0.02095 -0.489938,0.03143 z"
       id="path4125"
       inkscape:connector-curvature="0" />
    <path
       style="fill:#808080;stroke:#808080;stroke-width:0.10314492"
       d="m 32.734092,17.58425 c -0.732043,-0.179063 -0.558423,0.701834 -0.61061,1.172065 -0.103007,5.105681 0.287414,10.205066 0.230868,15.309567 0.02874,1.015485 -0.160151,2.079442 0.06346,3.068361 0.376811,0.312932 1.007651,0.05479 0.927901,-0.477852 0.418482,-4.672833 -0.03242,-9.367629 -0.09183,-14.047478 -0.04056,-1.685075 -0.02889,-3.370695 -0.03226,-5.056089 -0.162507,0.01047 -0.325014,0.02095 -0.487521,0.03143 z"
       id="path4127"
       inkscape:connector-curvature="0" />
    <path
       style="fill:#808080;stroke:#808080;stroke-width:0.10314492"
       d="m 32.514506,17.512533 c -0.506119,0.164106 -0.270696,0.942016 -0.361813,1.344711 -0.0052,6.063484 0.0023,12.131794 0.258974,18.19033 0.129627,0.495832 1.070536,0.122467 0.951972,-0.38252 0.422124,-5.587178 -0.123127,-11.187105 -0.119106,-16.780061 -0.01086,-0.756438 -0.02173,-1.512877 -0.03259,-2.269316 -0.232541,-0.03056 -0.462273,-0.09822 -0.697437,-0.103144 z"
       id="path4129"
       inkscape:connector-curvature="0" />
    <path
       style="fill:#808080;stroke:#808080;stroke-width:0.10314492"
       d="m 32.53848,17.468817 c -0.685644,0.355362 -0.353009,1.337984 -0.451322,1.964166 0.02418,5.904607 0.0767,11.813317 0.338507,17.712137 0.360428,0.361164 1.072884,-0.07601 0.960537,-0.596104 0.340434,-5.251971 -0.03052,-10.517795 -0.08594,-15.774049 -0.01937,-1.053028 -0.02977,-2.106195 -0.0448,-3.15929 -0.23811,-0.04639 -0.471715,-0.150505 -0.716978,-0.14686 z"
       id="path4131"
       inkscape:connector-curvature="0" />
    <path
       style="fill:#808080;stroke:#808080;stroke-width:0.10314492"
       d="m 32.662173,17.465594 c -0.794621,0.136873 -0.491767,1.1698 -0.572234,1.737537 0.03321,5.866073 0.04673,11.735594 0.255345,17.598106 -0.112063,0.724356 0.994645,0.585216 1.050185,0.0036 0.175336,-3.261604 0.04939,-6.537023 0.05421,-9.803793 -0.06339,-3.09337 -0.0171,-6.195855 -0.226046,-9.282249 -0.0188,-0.275997 -0.367073,-0.233232 -0.561455,-0.253228 z"
       id="path4133"
       inkscape:connector-curvature="0" />
    <path
       style="fill:#808080;stroke:#808080;stroke-width:0.10314492"
       d="m 32.53445,17.468817 c -0.558996,0.173174 -0.327404,1.0073 -0.425302,1.446395 -0.04978,5.91504 -0.0013,11.834522 0.232615,17.745255 -0.07733,0.413556 0.220644,0.844375 0.669733,0.623456 0.607071,-0.262197 0.348717,-1.122848 0.478095,-1.649801 0.04645,-6.040647 -0.03147,-12.083464 -0.216405,-18.121589 -0.246205,-0.01118 -0.492141,-0.04876 -0.738736,-0.04372 z"
       id="path4135"
       inkscape:connector-curvature="0" />
    <path
       style="fill:#808080;stroke:#808080;stroke-width:0.10314492"
       d="m 32.585821,17.457535 c -0.605548,0.08277 -0.380496,0.966318 -0.474399,1.385545 -0.0469,5.930541 -0.04218,11.866639 0.217141,17.792561 -0.101451,0.443805 0.308145,0.939196 0.751226,0.642238 0.605079,-0.558137 0.341938,-1.54279 0.42948,-2.281873 0.0034,-5.845278 -0.01078,-11.692814 -0.216945,-17.535046 -0.23553,0.0014 -0.471021,-7.42e-4 -0.706503,-0.0034 z"
       id="path4137"
       inkscape:connector-curvature="0" />
    <path
       style="fill:#808080;stroke:#808080;stroke-width:0.10314492"
       d="m 32.667814,17.462975 c -0.731339,-0.07092 -0.52167,0.849336 -0.577654,1.297127 -0.07828,5.951229 -0.02406,11.908207 0.24159,17.854321 -0.116401,0.44979 0.241358,1.021517 0.716008,0.672521 0.706965,-0.560816 0.343854,-1.601372 0.464659,-2.377962 0.06497,-5.786572 -0.01021,-11.586482 -0.204178,-17.362807 -0.182425,-0.119494 -0.433219,-0.07356 -0.640425,-0.0832 z"
       id="path4139"
       inkscape:connector-curvature="0" />
    <path
       style="fill:#808080;stroke:#808080;stroke-width:0.10314492"
       d="m 32.649884,17.442829 c -0.722755,-0.01172 -0.496301,0.958027 -0.594292,1.42207 -0.134071,5.397375 0.02242,10.799171 0.182629,16.194689 0.08604,0.72631 -0.03648,1.545605 0.22713,2.218493 0.730959,0.371519 1.112156,-0.583291 1.051159,-1.162243 0.08127,-6.060569 0.0196,-12.125756 -0.17824,-18.183924 0.08761,-0.604007 -0.219068,-0.458254 -0.688386,-0.489085 z"
       id="path4141"
       inkscape:connector-curvature="0" />
    <path
       style="fill:#808080;stroke:#808080;stroke-width:0.10314492"
       d="m 32.663784,17.388033 c -0.806269,0.105317 -0.53509,1.11364 -0.594393,1.671851 -0.01716,5.830651 -0.07096,11.667353 0.210017,17.492757 -0.08953,0.45891 0.306666,1.09138 0.811864,0.760493 0.619466,-0.479349 0.325484,-1.412094 0.450521,-2.089453 0.06625,-5.697578 -0.01015,-11.398558 -0.166268,-17.094293 0.02136,-0.49827 -0.152162,-0.833613 -0.711741,-0.741355 z"
       id="path4143"
       inkscape:connector-curvature="0" />
    <path
       style="fill:#808080;stroke:#808080;stroke-width:0.10314492"
       d="m 32.794529,17.364866 c -0.53772,0.0212 -0.930032,0.465847 -0.76456,1.006042 -0.06357,6.148748 -0.01812,12.302583 0.222847,18.446446 0.04459,0.475729 0.658717,0.903222 0.979273,0.367857 0.453032,-0.583659 0.230663,-1.43661 0.343386,-2.128129 0.05536,-5.648809 0.0012,-11.301702 -0.203572,-16.946936 0.01338,-0.383801 -0.0897,-0.825651 -0.577374,-0.74528 z"
       id="path4145"
       inkscape:connector-curvature="0" />
    <path
       style="fill:#808080;stroke:#808080;stroke-width:0.10314492"
       d="m 32.756051,17.358621 c -0.644355,0.0018 -0.931945,0.734801 -0.792011,1.288476 0.08897,5.862338 0.02344,11.729322 0.255451,17.588161 1.1e-4,0.440679 0.09794,1.378816 0.741037,1.184849 0.821287,-0.533217 0.512132,-1.694566 0.628183,-2.522364 0.05407,-5.663314 0.02654,-11.331916 -0.225274,-16.990359 0.06275,-0.420585 -0.219594,-0.595566 -0.607386,-0.548763 z"
       id="path4147"
       inkscape:connector-curvature="0" />
    <path
       style="fill:#808080;stroke:#808080;stroke-width:0.10314492"
       d="m 32.759274,17.358621 c -0.63063,-0.01373 -0.928881,0.655738 -0.78507,1.205506 0.02063,5.940581 -0.03001,11.887218 0.258022,17.822102 -0.02198,0.438272 0.154831,1.304279 0.769801,1.029042 0.807239,-0.485079 0.44768,-1.558977 0.570592,-2.330279 0.07144,-5.71493 0.08026,-11.436991 -0.195465,-17.146624 0.03912,-0.457767 -0.156173,-0.614438 -0.61788,-0.579747 z"
       id="path4149"
       inkscape:connector-curvature="0" />
    <path
       style="fill:#808080;stroke:#808080;stroke-width:0.10314492"
       d="m 32.789694,17.335454 c -0.514354,-0.0269 -0.89182,0.408544 -0.757068,0.921656 -0.101192,5.97067 -0.09302,11.948107 0.167611,17.914782 -0.0054,0.485441 0.04585,1.505807 0.786883,1.262317 0.821459,-0.457039 0.480964,-1.572676 0.59127,-2.33849 0.04508,-5.746843 0.134415,-11.503927 -0.21878,-17.242728 0.04752,-0.37448 -0.224562,-0.552178 -0.569916,-0.517537 z"
       id="path4151"
       inkscape:connector-curvature="0" />
    <path
       style="fill:#808080;stroke:#808080;stroke-width:0.10314492"
       d="m 32.748798,17.28932 c -0.695015,-0.0043 -0.81043,0.77274 -0.757672,1.312479 -0.03834,5.746481 -0.06648,11.498458 0.181787,17.24091 0.12992,0.50902 -0.141486,1.388284 0.487648,1.608825 0.728568,0.0952 0.962219,-0.765941 0.886623,-1.339619 0.05286,-5.710619 0.07745,-11.424931 -0.06947,-17.134176 -0.116213,-0.562798 0.189976,-1.737538 -0.728913,-1.688419 z"
       id="path4153"
       inkscape:connector-curvature="0" />
    <path
       style="fill:#808080;stroke:#808080;stroke-width:0.10314492"
       d="m 32.775189,17.264139 c -0.550394,0.07068 -1.0169,0.529069 -0.840661,1.108401 0.06311,6.004451 -0.07017,12.017071 0.266019,18.014701 -0.01471,0.444975 0.107644,1.239453 0.738022,1.050795 0.855695,-0.298847 0.530985,-1.401924 0.625115,-2.087274 0.0021,-5.58746 0.08922,-11.178609 -0.09715,-16.763666 -0.07648,-0.467254 0.0694,-1.435629 -0.691348,-1.322957 z"
       id="path4155"
       inkscape:connector-curvature="0" />
    <path
       style="fill:#808080;stroke:#808080;stroke-width:0.10314492"
       d="m 32.818905,17.253059 c -0.591658,0.08009 -1.15486,0.629519 -0.965883,1.25685 0.09408,5.902914 0.0067,11.812916 0.321227,17.709728 -0.01168,0.496817 0.101204,1.483292 0.835837,1.193419 0.796301,-0.376963 0.443534,-1.440374 0.553396,-2.132602 3.24e-4,-5.588083 0.08416,-11.179487 -0.08501,-16.765482 -0.06195,-0.454452 0.03219,-1.315415 -0.659563,-1.261913 z"
       id="path4157"
       inkscape:connector-curvature="0" />
    <path
       style="fill:#808080;stroke:#808080;stroke-width:0.10314492"
       d="m 32.811854,17.240165 c -0.593522,0.05721 -1.134563,0.610862 -0.947344,1.230284 0.02794,6.021547 -0.02133,12.050233 0.299106,18.064601 -0.05283,0.488153 0.448916,1.274493 0.97117,0.838117 0.672667,-0.571994 0.321479,-1.581398 0.442798,-2.346345 0.01029,-5.618874 0.151589,-11.244703 -0.12664,-16.858783 -0.01813,-0.430252 -0.05935,-0.987123 -0.63909,-0.927874 z"
       id="path4159"
       inkscape:connector-curvature="0" />
    <path
       style="fill:#808080;stroke:#808080;stroke-width:0.10314492"
       d="m 32.864434,17.243993 c -0.633511,0.0051 -1.149865,0.57027 -0.983651,1.210098 -0.01338,5.866304 -0.0017,11.736464 0.22149,17.59897 -0.01459,0.553083 0.05574,1.463075 0.7815,1.48812 0.515793,-0.259477 0.853898,-0.693879 0.70156,-1.290918 -0.01843,-5.994403 0.155011,-11.994509 -0.11311,-17.984893 -0.04697,-0.410804 0.01437,-1.101133 -0.607789,-1.021377 z"
       id="path4161"
       inkscape:connector-curvature="0" />
    <path
       style="fill:#808080;stroke:#808080;stroke-width:0.10314492"
       d="m 32.701658,17.221027 c -0.93112,0.09763 -0.894622,1.182105 -0.875322,1.879776 0.01828,5.883917 0.03013,11.772991 0.32535,17.650473 -0.03656,0.554712 0.697691,1.159497 1.107196,0.562866 0.64862,-0.604288 0.231735,-1.59043 0.360605,-2.362462 -0.0095,-5.737642 0.0044,-11.477837 -0.142832,-17.213317 -0.0762,-0.346523 -0.431847,-0.562047 -0.774997,-0.517336 z"
       id="path4163"
       inkscape:connector-curvature="0" />
    <path
       style="fill:#808080;stroke:#808080;stroke-width:0.10314492"
       d="m 32.737718,17.182348 c -0.573064,0.08286 -1.084525,0.610221 -0.906212,1.213157 0.06011,6.083158 -0.06299,12.176207 0.320784,18.25041 -0.108129,0.602866 0.56768,1.237598 1.081813,0.738534 0.59442,-0.63804 0.262478,-1.627749 0.380347,-2.415042 0.0094,-5.560845 0.0854,-11.125576 -0.09933,-16.683878 0.01559,-0.504566 -0.154915,-1.133299 -0.777403,-1.103181 z"
       id="path4165"
       inkscape:connector-curvature="0" />
    <path
       style="fill:#808080;stroke:#808080;stroke-width:0.10314492"
       d="m 32.768138,17.149309 c -0.589011,0.132285 -1.161027,0.682206 -0.990321,1.322552 0.0058,5.946068 0.02949,11.896914 0.317663,17.836618 -0.008,0.520117 0.14641,1.431362 0.870487,1.225852 0.919063,-0.319939 0.557346,-1.460843 0.64526,-2.191426 0.0209,-5.572369 0.09166,-11.148148 -0.06676,-16.718525 -0.04246,-0.538162 -0.0076,-1.493869 -0.776334,-1.475071 z"
       id="path4167"
       inkscape:connector-curvature="0" />
    <path
       style="fill:#808080;stroke:#808080;stroke-width:0.10314492"
       d="m 32.760483,17.160591 c -0.6679,0.06195 -1.170563,0.6972 -0.982603,1.362036 0.0166,6.055852 -0.03728,12.120716 0.334119,18.167205 -0.08256,0.620125 0.682521,1.212241 1.157963,0.67004 0.638524,-0.656279 0.256995,-1.683533 0.370568,-2.501056 0.0094,-5.691439 0.181011,-11.392719 -0.165084,-17.076938 0.0042,-0.377257 -0.349797,-0.656584 -0.714963,-0.621287 z"
       id="path4169"
       inkscape:connector-curvature="0" />
    <path
       style="fill:#808080;stroke:#808080;stroke-width:0.10314492"
       d="m 32.770556,17.162001 c -0.601911,-0.0015 -1.095655,0.537092 -0.948073,1.146415 -0.08738,6.002459 -0.08961,12.013835 0.245679,18.009088 -0.05458,0.579608 0.280892,1.466982 1.007598,1.216022 0.776239,-0.437269 0.476478,-1.520573 0.58301,-2.256496 0.02228,-5.496982 0.08956,-10.99741 -0.07575,-16.492511 -0.09103,-0.569236 0.08519,-1.692199 -0.812467,-1.622518 z"
       id="path4171"
       inkscape:connector-curvature="0" />
    <path
       style="fill:#808080;stroke:#808080;stroke-width:0.10314492"
       d="m 32.75182,17.153741 c -0.66011,-0.0095 -1.056969,0.614828 -0.938344,1.225261 -0.101112,5.830052 -0.03922,11.66564 0.189952,17.492117 0.02714,0.621732 0.04867,1.754976 0.923658,1.706123 0.947278,-0.248897 0.664332,-1.447812 0.745383,-2.17652 0.04134,-5.694928 0.151607,-11.39671 -0.123089,-17.087205 -0.04892,-0.505435 -0.05215,-1.320863 -0.79756,-1.159776 z"
       id="path4173"
       inkscape:connector-curvature="0" />
    <path
       style="fill:#808080;stroke:#808080;stroke-width:0.10314492"
       d="m 32.754036,17.130171 c -0.60343,0.07531 -1.204793,0.597566 -1.012372,1.249623 0.04366,6.088443 -0.058,12.18588 0.300833,18.266121 -0.08098,0.697272 0.847698,1.365556 1.331819,0.694013 0.550426,-0.807929 0.205175,-1.875452 0.3267,-2.790898 0.01502,-5.291986 0.102202,-10.589096 -0.113662,-15.877656 -0.0757,-0.583388 0.06773,-1.622216 -0.833318,-1.541203 z"
       id="path4175"
       inkscape:connector-curvature="0" />
    <path
       style="fill:#808080;stroke:#808080;stroke-width:0.10314492"
       d="m 32.750209,17.097132 c -0.651263,0.02137 -1.106456,0.593923 -1.032457,1.233308 -0.09821,4.677115 0.03478,9.35809 0.124632,14.035167 0.09695,1.610133 -0.0032,3.262616 0.335088,4.841562 0.240934,0.592475 1.06812,0.557077 1.308651,-0.02357 0.443276,-0.95752 0.153607,-2.077877 0.248647,-3.101596 -0.01669,-5.445816 0.01214,-10.897002 -0.195462,-16.338401 -0.09438,-0.35369 -0.395819,-0.683222 -0.789099,-0.646469 z"
       id="path4177"
       inkscape:connector-curvature="0" />
    <path
       style="fill:#808080;stroke:#808080;stroke-width:0.10314492"
       d="m 32.703673,17.062079 c -0.582338,0.0538 -1.023448,0.523618 -0.971013,1.117471 -0.139496,3.966522 0.01536,7.939331 0.04203,11.90778 0.08843,2.324914 -1.25e-4,4.675572 0.333679,6.980029 0.147581,0.613054 0.945895,0.79986 1.314494,0.26733 0.437581,-0.978324 0.216998,-2.12709 0.300049,-3.17512 -0.0091,-5.309049 0.06636,-10.622049 -0.124985,-15.928245 0.05046,-0.568547 -0.244841,-1.186486 -0.894258,-1.169245 z"
       id="path4179"
       inkscape:connector-curvature="0" />
    <path
       style="fill:#808080;stroke:#808080;stroke-width:0.10314492"
       d="m 32.734092,17.035487 c -0.617298,0.101086 -1.23596,0.669017 -1.059503,1.333229 0.01554,6.022127 -0.04096,12.052578 0.312153,18.066257 -0.08437,0.631262 0.489026,1.499471 1.181486,1.161004 0.808408,-0.688732 0.448325,-1.901624 0.558463,-2.830017 -0.01264,-5.636462 0.03258,-11.276042 -0.13843,-16.910148 -0.01847,-0.419746 -0.417165,-0.84992 -0.854169,-0.820325 z"
       id="path4181"
       inkscape:connector-curvature="0" />
    <path
       style="fill:#808080;stroke:#808080;stroke-width:0.10314492"
       d="m 32.744769,17.031257 c -0.620293,0.1019 -1.247706,0.668264 -1.070051,1.337459 0.02797,6.04055 -0.07784,12.09014 0.289816,18.122281 -0.07862,0.661682 0.682234,1.596926 1.319329,1.005864 0.682494,-0.82205 0.33222,-2.002786 0.445011,-2.983143 -0.01682,-5.489512 0.03935,-10.982072 -0.113867,-16.469474 0.02887,-0.504836 -0.3165,-1.048861 -0.870238,-1.012987 z"
       id="path4183"
       inkscape:connector-curvature="0" />
    <path
       style="fill:#808080;stroke:#808080;stroke-width:0.10314492"
       d="m 32.690981,17.062885 c -0.55964,1.34e-4 -1.031307,0.442428 -0.973632,1.021377 -0.1591,3.925897 0.0041,7.859253 0.01289,11.787731 0.08207,2.401019 -0.01916,4.82595 0.329782,7.207051 0.172144,0.775293 1.38411,0.784307 1.537101,-0.0073 0.256816,-1.644292 0.104559,-3.336631 0.169719,-4.999506 -9.26e-4,-4.752145 0.05045,-9.510127 -0.168309,-14.25757 0.0032,-0.489651 -0.448817,-0.792556 -0.907554,-0.75183 z"
       id="path4185"
       inkscape:connector-curvature="0" />
    <path
       style="fill:#808080;stroke:#808080;stroke-width:0.10314492"
       d="m 32.611608,17.036696 c -0.764395,0.02507 -1.016184,0.830945 -0.971215,1.478478 -0.07074,5.471367 0.01459,10.946903 0.203905,16.415681 0.136943,0.858679 -0.142369,1.940592 0.520124,2.619996 0.610238,0.375857 1.379706,-0.202097 1.298207,-0.895991 0.292367,-3.741274 0.104713,-7.502493 0.115286,-11.251686 -0.06833,-2.579009 0.0449,-5.173013 -0.22511,-7.74096 -0.033,-0.4725 -0.522735,-0.686877 -0.941197,-0.625518 z"
       id="path4187"
       inkscape:connector-curvature="0" />
    <path
       style="fill:#808080;stroke:#808080;stroke-width:0.10314492"
       d="m 32.699643,17.011313 c -0.886902,-0.0046 -1.19468,1.007391 -1.09671,1.740621 -0.04878,5.853398 0.02351,11.711407 0.291092,17.559164 -0.04577,0.653655 0.355793,1.591516 1.152927,1.343099 0.849609,-0.310489 0.63394,-1.444635 0.736675,-2.158705 0.09817,-5.731879 -0.0039,-11.466911 -0.121235,-17.197987 -0.0036,-0.584055 -0.213384,-1.383903 -0.962749,-1.286192 z"
       id="path4189"
       inkscape:connector-curvature="0" />
    <path
       style="fill:#808080;stroke:#808080;stroke-width:0.10314492"
       d="m 32.682923,16.966388 c -0.875219,0.0798 -1.21,1.076144 -1.09934,1.836463 4.7e-5,5.565205 0.0118,11.134931 0.253547,16.695569 0.116928,0.749559 -0.07774,1.99904 0.890717,2.223466 0.981226,-0.0027 1.075056,-1.210444 1.059452,-1.948875 0.05265,-5.927696 0.04897,-11.859064 -0.12873,-17.784441 -0.03775,-0.505447 -0.415706,-1.060229 -0.975646,-1.022182 z"
       id="path4191"
       inkscape:connector-curvature="0" />
    <path
       style="fill:#808080;stroke:#808080;stroke-width:0.10314492"
       d="m 32.671843,16.958531 c -0.92558,0.0571 -1.167503,1.090157 -1.089646,1.850744 0.0062,5.661292 -0.0049,11.327677 0.255824,16.984084 0.02376,0.730305 0.07969,1.838924 0.986726,1.984128 1.007401,-0.183558 0.939188,-1.374022 0.94555,-2.156107 0.04416,-5.768066 0.151817,-11.542495 -0.1059,-17.306786 0.02112,-0.666599 -0.155528,-1.414127 -0.992554,-1.356063 z"
       id="path4193"
       inkscape:connector-curvature="0" />
    <path
       style="fill:#808080;stroke:#808080;stroke-width:0.10314492"
       d="m 32.644042,16.947854 c -0.827593,0.0019 -1.088199,0.920562 -1.012714,1.602171 -0.122341,5.747361 -0.06848,11.501706 0.179043,17.24511 0.0071,0.755695 0.122859,1.904469 1.086295,1.972885 0.941128,-0.127492 0.79113,-1.238575 0.845725,-1.926853 0.07629,-5.933953 0.06707,-11.87082 -0.03346,-17.804449 -0.01853,-0.575685 -0.422673,-1.179401 -1.064891,-1.088864 z"
       id="path4195"
       inkscape:connector-curvature="0" />
    <path
       style="fill:#808080;stroke:#808080;stroke-width:0.10314492"
       d="m 32.619464,16.953898 c -0.809512,-0.01589 -1.04154,0.862386 -1.000992,1.520228 -0.09219,5.704959 -0.07324,11.416472 0.162336,17.11818 0.03309,0.783316 0.04719,2.064344 1.060861,2.188405 0.88329,-0.06741 0.937466,-1.12076 0.909771,-1.799396 0.04696,-5.726435 0.07344,-11.455075 -0.02149,-17.18099 -0.03624,-0.783542 0.03794,-1.982346 -1.110491,-1.846427 z"
       id="path4197"
       inkscape:connector-curvature="0" />
    <path
       style="fill:#808080;stroke:#808080;stroke-width:0.10314492"
       d="m 32.525385,16.95974 c -0.939881,0.0512 -0.913158,1.231923 -0.927096,1.925104 -0.04369,5.781483 -0.08732,11.570404 0.212132,17.346074 -0.08068,0.758821 0.518049,1.881541 1.403335,1.461757 0.827446,-0.622387 0.470189,-1.811412 0.577918,-2.698653 0.03947,-5.563133 0.131895,-11.131124 -0.07368,-16.691585 0.03796,-0.639201 -0.296965,-1.483444 -1.07859,-1.343301 l -0.05882,-6.05e-4 -0.0552,0.0012 z"
       id="path4199"
       inkscape:connector-curvature="0" />
    <path
       style="fill:#808080;stroke:#808080;stroke-width:0.10314492"
       d="m 32.621882,16.929321 c -0.981283,-0.03674 -1.103132,1.161347 -1.062071,1.891258 -0.02133,5.663294 -0.07086,11.333268 0.215897,16.99098 0.05108,0.739032 0.07636,1.985075 1.091747,1.974591 0.970239,-0.139201 0.944545,-1.311384 0.918139,-2.059823 0.04482,-5.770785 0.101926,-11.545151 -0.04955,-17.314213 0.02829,-0.714721 -0.216135,-1.608165 -1.114164,-1.482793 z"
       id="path4201"
       inkscape:connector-curvature="0" />
    <path
       style="fill:#808080;stroke:#808080;stroke-width:0.10314492"
       d="m 32.640416,16.878554 c -0.929835,0.03052 -1.154279,1.073926 -1.083878,1.822724 -0.03164,5.783393 -0.07323,11.573491 0.214107,17.351478 -0.04259,0.727757 0.292453,1.907314 1.222518,1.738028 1.052338,-0.383782 0.782815,-1.711613 0.824355,-2.585249 0.0019,-5.70601 0.05308,-11.414867 -0.09259,-17.119009 0.03409,-0.633253 -0.396785,-1.257442 -1.084513,-1.207972 z"
       id="path4203"
       inkscape:connector-curvature="0" />
    <path
       style="fill:#808080;stroke:#808080;stroke-width:0.10314492"
       d="m 32.643639,16.869891 c -1.035385,0.05477 -1.198547,1.31896 -1.140765,2.133779 -0.06038,5.665519 -0.02051,11.336586 0.240814,16.996838 0.0097,0.745351 0.263922,1.829631 1.176347,1.861389 0.695181,-0.103907 0.858629,-0.813343 0.845618,-1.407288 0.158324,-4.981221 0.05959,-9.968195 0.06882,-14.951653 -0.08063,-1.390784 0.122173,-2.84495 -0.279045,-4.19067 -0.181005,-0.313123 -0.561832,-0.462793 -0.911785,-0.442395 z"
       id="path4205"
       inkscape:connector-curvature="0" />
    <path
       style="fill:#808080;stroke:#808080;stroke-width:0.10314492"
       d="m 32.62853,16.826176 c -1.028641,0.119006 -1.147273,1.324262 -1.128008,2.147645 -0.0446,5.168521 0.0094,10.33971 0.14108,15.506857 0.122661,1.015436 -0.07063,2.210319 0.580996,3.071583 0.476925,0.646477 1.378551,0.210225 1.505876,-0.473419 0.246418,-4.153632 0.162644,-8.323645 0.164991,-12.484162 -0.07237,-2.357301 0.03089,-4.733934 -0.237918,-7.077313 -0.137723,-0.423492 -0.577996,-0.735437 -1.027017,-0.691191 z"
       id="path4207"
       inkscape:connector-curvature="0" />
    <path
       style="fill:#808080;stroke:#808080;stroke-width:0.10314492"
       d="m 32.654316,16.840479 c -0.840507,0.02895 -1.194293,0.925968 -1.135809,1.656765 -0.107777,4.888813 0.01591,9.781251 0.07071,14.670673 0.105867,1.404575 -0.08572,2.904679 0.459329,4.230836 0.379414,0.759324 1.47973,0.503745 1.68235,-0.250611 0.247006,-1.929174 0.101096,-3.901069 0.152728,-5.847026 -0.03489,-4.36914 0.0869,-8.743747 -0.119286,-13.109076 0.0119,-0.672368 -0.330411,-1.420365 -1.110017,-1.351561 z"
       id="path4209"
       inkscape:connector-curvature="0" />
    <path
       style="fill:#808080;stroke:#808080;stroke-width:0.10314492"
       d="m 32.619867,16.843098 c -0.912792,0.03831 -1.202723,1.092597 -1.101958,1.849557 -0.06309,5.675003 -0.11099,11.357212 0.167928,17.027266 0.05159,0.804001 0.116232,2.079917 1.151803,2.170583 0.869083,-0.05345 1.024585,-1.05915 1.000548,-1.754853 0.172391,-5.210275 0.05513,-10.427296 0.0071,-15.639571 -0.09764,-1.028343 0.118023,-2.126496 -0.223615,-3.111471 -0.185187,-0.369852 -0.597138,-0.567801 -1.001836,-0.541511 z"
       id="path4211"
       inkscape:connector-curvature="0" />
    <path
       style="fill:#808080;stroke:#808080;stroke-width:0.10314492"
       d="m 32.63135,16.816909 c -0.945357,0.02128 -1.197134,1.117774 -1.125528,1.882797 -0.05177,5.486581 -0.08675,10.978404 0.129737,16.46189 0.135317,0.883148 -0.07787,2.15087 0.854773,2.649535 0.873404,0.36631 1.506514,-0.688649 1.356396,-1.458131 0.07526,-6.15279 0.08205,-12.308975 -0.06688,-18.460523 -0.03249,-0.581885 -0.526011,-1.156059 -1.148495,-1.075568 z"
       id="path4213"
       inkscape:connector-curvature="0" />
    <path
       style="fill:#808080;stroke:#808080;stroke-width:0.10314492"
       d="m 32.70186,16.780848 c -0.965346,0.03142 -1.372945,1.166987 -1.238587,1.986749 0.04089,5.828141 -0.105258,11.664501 0.228894,17.485884 -0.03531,0.794117 0.598517,1.986117 1.538713,1.558052 0.89973,-0.480677 0.538255,-1.665296 0.649502,-2.489164 0.02763,-5.590592 0.133193,-11.185588 -0.06105,-16.773784 0.02246,-0.75098 -0.187666,-1.752546 -1.117468,-1.767737 z"
       id="path4215"
       inkscape:connector-curvature="0" />
    <path
       style="fill:#808080;stroke:#808080;stroke-width:0.10314492"
       d="m 32.682923,16.757278 c -0.710016,0.03344 -1.239882,0.653566 -1.170042,1.361986 -0.15709,4.216398 -0.04843,8.440093 -0.02859,12.658991 0.07123,2.060718 -0.0078,4.143956 0.30679,6.185355 0.180573,0.611891 0.907994,1.343302 1.529244,0.792322 0.807151,-0.543307 0.438304,-1.672447 0.559571,-2.483928 0.01929,-5.573382 0.141395,-11.15106 -0.05916,-16.721979 -0.0161,-0.764201 -0.116596,-1.840357 -1.137817,-1.792747 z"
       id="path4217"
       inkscape:connector-curvature="0" />
    <path
       style="fill:#808080;stroke:#808080;stroke-width:0.10314492"
       d="m 32.613421,16.765739 c -0.914909,0.02674 -1.188873,1.036038 -1.146122,1.793216 -0.167296,5.799598 -0.06225,11.607027 0.170096,17.403383 0.04658,0.769654 0.259723,2.037692 1.26874,1.987192 1.060734,-0.217688 1.048205,-1.511054 1.011299,-2.362454 0.01153,-5.706802 0.05388,-11.416085 -0.08598,-17.121297 -0.0071,-0.65225 -0.05398,-1.61585 -0.897115,-1.695003 -0.106261,-0.01425 -0.214227,-0.01526 -0.320917,-0.005 z"
       id="path4219"
       inkscape:connector-curvature="0" />
    <path
       style="fill:#808080;stroke:#808080;stroke-width:0.10314492"
       d="m 32.680908,16.737334 c -0.875309,0.02878 -1.338985,0.941017 -1.221727,1.73194 -0.04916,5.434327 -0.07363,10.872642 0.09552,16.305197 0.126131,1.032702 -0.07411,2.359482 0.841752,3.081786 0.876848,0.484903 1.672762,-0.695819 1.511085,-1.497973 0.03045,-5.948666 0.06025,-11.899838 -0.07113,-17.847195 -0.0085,-0.678175 -0.04432,-1.651928 -0.913147,-1.761063 -0.07996,-0.0135 -0.161429,-0.01721 -0.24235,-0.01269 z"
       id="path4221"
       inkscape:connector-curvature="0" />
    <path
       style="fill:#808080;stroke:#808080;stroke-width:0.10314492"
       d="m 32.67426,16.741162 c -0.897683,0.01143 -1.442686,0.988772 -1.256195,1.802818 0.05478,5.658994 -0.08856,11.323744 0.168975,16.978522 0.09336,0.886043 0.06883,2.319918 1.228037,2.464297 0.814035,-0.08887 1.20056,-1.001075 1.081661,-1.736506 0.06113,-6.00105 0.0517,-12.004648 -0.05638,-18.00494 0.05832,-0.718617 -0.267498,-1.66231 -1.166098,-1.504191 z"
       id="path4223"
       inkscape:connector-curvature="0" />
    <path
       style="fill:#808080;stroke:#808080;stroke-width:0.10314492"
       d="m 32.621278,16.739751 c -1.016994,-0.01101 -1.307173,1.200177 -1.238212,2.013849 -0.0149,5.525 -0.0086,11.053444 0.176478,16.575858 0.07174,0.920758 -0.01593,2.283931 1.081476,2.626116 0.766155,0.139579 1.327448,-0.677658 1.234516,-1.38601 0.154637,-4.953939 0.05338,-9.913634 0.05972,-14.869771 -0.09278,-1.478952 0.165132,-3.016212 -0.261581,-4.45298 -0.160295,-0.428436 -0.644565,-0.530901 -1.0524,-0.507062 z"
       id="path4225"
       inkscape:connector-curvature="0" />
    <path
       style="fill:#808080;stroke:#808080;stroke-width:0.10314492"
       d="m 32.644848,16.717591 c -0.926198,0.005 -1.358385,1.027029 -1.244648,1.832584 -0.04648,5.697493 -0.0951,11.401368 0.168677,17.094509 0.03174,0.862361 0.144485,2.178458 1.206916,2.34131 0.854085,0.02247 1.266789,-0.915785 1.133077,-1.656001 0.0894,-6.110157 0.113851,-12.224296 -0.04059,-18.333364 -0.0045,-0.688591 -0.434643,-1.425532 -1.223435,-1.279038 z"
       id="path4227"
       inkscape:connector-curvature="0" />
    <path
       style="fill:#808080;stroke:#808080;stroke-width:0.10314492"
       d="m 32.672246,16.690395 c -0.907154,0.02089 -1.397855,0.99746 -1.274606,1.814384 -0.02948,5.825252 -0.0048,11.653397 0.15371,17.476738 0.03762,0.817281 0.36898,2.153962 1.436575,1.990174 0.84773,-0.08409 0.952592,-1.045395 0.940795,-1.719821 0.117621,-5.886705 0.05868,-11.777039 -2.75e-4,-17.664507 0.05726,-0.803464 -0.197256,-2.025055 -1.256199,-1.896968 z"
       id="path4229"
       inkscape:connector-curvature="0" />
    <path
       style="fill:#808080;stroke:#808080;stroke-width:0.10314492"
       d="m 32.710119,16.658162 c -0.876577,-0.0042 -1.369641,0.874685 -1.290542,1.669267 -0.102245,5.269144 -0.06217,10.542887 0.053,15.811984 0.149106,1.179877 -0.179117,2.568404 0.629143,3.560918 0.669709,0.758616 1.915904,-0.01749 1.79859,-0.941802 0.229368,-5.30684 0.124929,-10.623357 0.07394,-15.933556 -0.09908,-1.250871 0.09587,-2.575852 -0.331402,-3.772564 -0.196636,-0.294404 -0.594824,-0.40835 -0.932736,-0.394247 z"
       id="path4231"
       inkscape:connector-curvature="0" />
    <path
       style="fill:#808080;stroke:#808080;stroke-width:0.10314492"
       d="m 32.679297,16.642449 c -0.925864,0.02029 -1.397569,1.001541 -1.28927,1.826341 -0.03785,5.596053 -0.0073,11.194429 0.108744,16.789504 0.06269,0.972731 -0.03889,2.443512 1.160783,2.752076 0.784932,0.135101 1.371202,-0.705577 1.26695,-1.433151 0.200476,-4.969254 0.06922,-9.946987 0.07064,-14.919513 -0.06872,-1.408125 0.100604,-2.854281 -0.196953,-4.237641 -0.158952,-0.508746 -0.570205,-0.841407 -1.120895,-0.777616 z"
       id="path4233"
       inkscape:connector-curvature="0" />
    <path
       style="fill:#808080;stroke:#808080;stroke-width:0.10314492"
       d="m 32.68252,16.63016 c -0.937329,0.04568 -1.425287,1.011575 -1.313285,1.859227 -0.03841,5.598017 -0.0676,11.200168 0.121075,16.795901 0.06769,0.973377 0.0069,2.401059 1.144264,2.768797 0.757041,0.122277 1.431052,-0.693409 1.309054,-1.431538 0.08942,-5.755007 0.06197,-11.512744 0.01692,-17.268314 -0.107108,-0.791791 0.138204,-1.770137 -0.403112,-2.430755 -0.23409,-0.219201 -0.556254,-0.324973 -0.874918,-0.293318 z"
       id="path4235"
       inkscape:connector-curvature="0" />
    <path
       style="fill:#808080;stroke:#808080;stroke-width:0.10314492"
       d="m 32.663784,16.624318 c -0.896152,-0.0075 -1.356263,0.915478 -1.294391,1.71231 -0.132967,4.769735 -0.02237,9.544517 0.02404,14.31551 0.09324,1.526629 -0.05344,3.10887 0.344261,4.594516 0.292315,0.648802 1.152956,1.17462 1.760515,0.563268 0.717632,-0.609571 0.355199,-1.681856 0.475828,-2.500213 0.01157,-5.629744 0.07714,-11.261576 -0.0421,-16.890226 0.0061,-0.690037 -0.07147,-1.672424 -0.942204,-1.77502 -0.107382,-0.01919 -0.217038,-0.02557 -0.325955,-0.02014 z"
       id="path4237"
       inkscape:connector-curvature="0" />
    <path
       style="fill:#808080;stroke:#808080;stroke-width:0.10314492"
       d="m 32.612212,16.610619 c -0.914234,0.05024 -1.378239,1.056962 -1.261418,1.87772 -0.0373,5.665229 -0.04906,11.334022 0.110813,16.997322 0.0895,0.933725 0.07385,2.379592 1.255966,2.587966 1.019573,0.09673 1.384833,-1.110743 1.279484,-1.930666 0.06011,-5.959293 0.05127,-11.920959 -0.05041,-17.879606 0.05895,-0.830451 -0.331209,-1.810173 -1.334437,-1.652736 z"
       id="path4239"
       inkscape:connector-curvature="0" />
    <path
       style="fill:#808080;stroke:#808080;stroke-width:0.10314492"
       d="m 32.743359,16.570126 c -1.032557,0.04637 -1.577839,1.175832 -1.450274,2.105003 -0.03821,5.714991 0.0049,11.43283 0.1662,17.145627 0.06633,0.882422 0.257102,2.264928 1.41784,2.252669 1.020297,-0.04378 1.237944,-1.231094 1.13822,-2.046783 0.01798,-6.020234 0.05475,-12.042863 -0.07796,-18.061642 0.04219,-0.710263 -0.418498,-1.436946 -1.194023,-1.394874 z"
       id="path4241"
       inkscape:connector-curvature="0" />
    <path
       style="fill:#808080;stroke:#808080;stroke-width:0.10314492"
       d="m 32.719789,16.553003 c -1.081067,0.02915 -1.534353,1.283469 -1.424689,2.208349 -0.03298,5.825549 -0.08856,11.658042 0.19944,17.478229 -0.03285,0.861463 0.593975,2.135454 1.627957,1.798791 0.851492,-0.238557 0.938157,-1.218619 0.88197,-1.956329 0.04571,-6.042847 0.05339,-12.088145 -0.06447,-18.129936 C 34.02323,17.2026 33.5,16.521353 32.719789,16.553003 Z"
       id="path4243"
       inkscape:connector-curvature="0" />
    <path
       style="fill:#808080;stroke:#808080;stroke-width:0.10314492"
       d="m 32.865794,8.558352 c -0.764566,0.3405785 -0.924881,1.3433366 -1.368194,1.986967 -2.468993,4.663792 -5.998737,8.680419 -8.322459,13.43125 -1.795488,3.535028 -3.746272,6.997482 -6.081068,10.208585 -1.813649,2.641943 -3.743182,5.217532 -5.188536,8.090023 -1.385269,2.720213 -3.0364615,5.286276 -4.7360262,7.817636 -0.3737808,0.707122 -1.0492138,1.365761 -1.0794937,2.191128 0.4524912,0.526838 1.2856104,0.158391 1.8862225,0.204477 4.1996404,-0.369425 8.4314564,-0.514641 12.6422804,-0.276577 5.664238,0.431912 11.355897,0.358381 17.025346,0.07579 4.637072,-0.144578 9.276854,0.02847 13.913721,-0.108243 2.128354,0.01398 4.270407,0.500946 6.389546,0.203268 0.521304,-0.310182 -0.03295,-1.029076 -0.125669,-1.452552 -1.636205,-3.74492 -3.934202,-7.147822 -5.9482,-10.692132 -2.806279,-4.667521 -5.58844,-9.351358 -8.124521,-14.173 -1.738775,-3.339415 -3.834081,-6.467386 -5.82859,-9.654404 C 36.429794,14.088102 35.135737,11.648625 33.72097,9.2827839 33.500699,9.0049165 33.270209,8.5644662 32.865794,8.558352 Z m 0.164991,3.270822 c 1.020829,1.685289 1.883077,3.47717 3.000765,5.110661 2.476778,3.963573 5.080134,7.856146 7.170773,12.045279 2.002093,3.850244 4.242714,7.564641 6.496654,11.270197 1.939571,3.324539 3.993318,6.591053 5.745079,10.019722 0.306847,0.496528 -0.500857,0.203621 -0.719974,0.242421 -4.37795,-0.188097 -8.766212,-0.105378 -13.148384,-0.131248 -4.661099,-0.04611 -9.314201,0.276871 -13.975332,0.268973 -4.071224,0.04874 -8.120488,-0.588326 -12.19487,-0.458362 -2.067602,-0.09036 -4.129462,0.250061 -6.1832577,0.286118 1.3725177,-2.322068 2.9694697,-4.523214 4.1209617,-6.97578 2.590492,-4.980984 6.380288,-9.207985 9.047149,-14.145717 2.348795,-4.184715 4.42255,-8.5512 7.337167,-12.389321 1.185399,-1.657919 2.188888,-3.442521 3.294003,-5.145763 l 0.0093,0.0028 z"
       id="path4245"
       inkscape:connector-curvature="0" />
    <path
       style="fill:#808080;stroke:#808080;stroke-width:0.10314492"
       d="m 33.338004,40.778045 c -0.934391,0.581741 -2.150738,0.645277 -2.957761,1.469211 -1.89127,1.535085 -1.560483,4.874686 0.568707,6.035186 2.002235,1.262597 4.794071,-0.427525 5.042065,-2.670138 0.189884,-1.042279 0.554738,-2.287933 -0.298406,-3.152312 -0.641939,-0.70165 -1.428968,-1.366447 -2.328818,-1.683559 l -0.02579,0.0016 z"
       id="path4247"
       inkscape:connector-curvature="0" />
    <path
       style="fill:#808080;stroke:#808080;stroke-width:0.14586894"
       d="m 33.355125,41.05763 c -1.156504,0.576436 -2.550164,0.84979 -3.321367,2.001994 -0.998574,1.392571 -0.755992,3.568457 0.618803,4.640456 1.669358,1.649427 4.713941,0.233755 5.037322,-1.950142 0.249098,-1.121916 0.591233,-2.58982 -0.494872,-3.403419 -0.557613,-0.480133 -1.123474,-1.067122 -1.839886,-1.288889 z"
       id="path4249"
       inkscape:connector-curvature="0" />
    <path
       style="fill:#808080;stroke:#808080;stroke-width:0.14586894"
       d="m 33.355125,41.05763 c -1.156504,0.576436 -2.550164,0.84979 -3.321367,2.001994 -0.998574,1.392571 -0.755992,3.568457 0.618803,4.640456 1.669358,1.649427 4.713941,0.233755 5.037322,-1.950142 0.249098,-1.121916 0.591233,-2.58982 -0.494872,-3.403419 -0.557613,-0.480133 -1.123474,-1.067122 -1.839886,-1.288889 z"
       id="path4251"
       inkscape:connector-curvature="0" />
    <path
       style="fill:#808080;stroke:#808080;stroke-width:0.14586894"
       d="m 33.355125,41.05763 c -1.156504,0.576436 -2.550164,0.84979 -3.321367,2.001994 -0.998574,1.392571 -0.755992,3.568457 0.618803,4.640456 1.669358,1.649427 4.713941,0.233755 5.037322,-1.950142 0.249098,-1.121916 0.591233,-2.58982 -0.494872,-3.403419 -0.557613,-0.480133 -1.123474,-1.067122 -1.839886,-1.288889 z"
       id="path4253"
       inkscape:connector-curvature="0" />
    <path
       style="fill:#808080;stroke:#808080;stroke-width:0.14586894"
       d="m 33.355125,41.05763 c -1.156504,0.576436 -2.550164,0.84979 -3.321367,2.001994 -0.998574,1.392571 -0.755992,3.568457 0.618803,4.640456 1.669358,1.649427 4.713941,0.233755 5.037322,-1.950142 0.249098,-1.121916 0.591233,-2.58982 -0.494872,-3.403419 -0.557613,-0.480133 -1.123474,-1.067122 -1.839886,-1.288889 z"
       id="path4255"
       inkscape:connector-curvature="0" />
    <path
       style="fill:#808080;stroke:#808080;stroke-width:0.14586894"
       d="m 33.355125,41.05763 c -1.156504,0.576436 -2.550164,0.84979 -3.321367,2.001994 -0.998574,1.392571 -0.755992,3.568457 0.618803,4.640456 1.669358,1.649427 4.713941,0.233755 5.037322,-1.950142 0.249098,-1.121916 0.591233,-2.58982 -0.494872,-3.403419 -0.557613,-0.480133 -1.123474,-1.067122 -1.839886,-1.288889 z"
       id="path4257"
       inkscape:connector-curvature="0" />
    <path
       style="fill:#808080;stroke:#808080;stroke-width:0.14586894"
       d="m 33.355125,41.05763 c -1.156504,0.576436 -2.550164,0.84979 -3.321367,2.001994 -0.998574,1.392571 -0.755992,3.568457 0.618803,4.640456 1.669358,1.649427 4.713941,0.233755 5.037322,-1.950142 0.249098,-1.121916 0.591233,-2.58982 -0.494872,-3.403419 -0.557613,-0.480133 -1.123474,-1.067122 -1.839886,-1.288889 z"
       id="path4259"
       inkscape:connector-curvature="0" />
    <path
       style="fill:#808080;stroke:#808080;stroke-width:0.14586894"
       d="m 33.355125,41.05763 c -1.156504,0.576436 -2.550164,0.84979 -3.321367,2.001994 -0.998574,1.392571 -0.755992,3.568457 0.618803,4.640456 1.669358,1.649427 4.713941,0.233755 5.037322,-1.950142 0.249098,-1.121916 0.591233,-2.58982 -0.494872,-3.403419 -0.557613,-0.480133 -1.123474,-1.067122 -1.839886,-1.288889 z"
       id="path4261"
       inkscape:connector-curvature="0" />
    <path
       style="fill:#808080;stroke:#808080;stroke-width:0.07293447"
       d="m 33.380813,41.047448 c -0.989292,0.55767 -2.240457,0.681008 -3.026638,1.579772 -0.875596,0.876519 -1.211123,2.224808 -0.822972,3.402012 0.337452,1.407279 1.748446,2.562243 3.19092,2.396848 1.615248,-0.06011 2.933762,-1.528956 3.06678,-3.088847 0.136564,-0.889589 0.424197,-1.937915 -0.255384,-2.689928 -0.580897,-0.671162 -1.335557,-1.195277 -2.120655,-1.596011 -0.01049,-0.0022 -0.02125,-0.0046 -0.03205,-0.0038 z"
       id="path4263"
       inkscape:connector-curvature="0" />
    <path
       style="fill:#808080;stroke:#808080;stroke-width:0.07293447"
       d="m 33.380813,41.047448 c -0.989292,0.55767 -2.240457,0.681008 -3.026638,1.579772 -0.875596,0.876519 -1.211123,2.224808 -0.822972,3.402012 0.337452,1.407279 1.748446,2.562243 3.19092,2.396848 1.615248,-0.06011 2.933762,-1.528956 3.06678,-3.088847 0.136564,-0.889589 0.424197,-1.937915 -0.255384,-2.689928 -0.580897,-0.671162 -1.335557,-1.195277 -2.120655,-1.596011 -0.01049,-0.0022 -0.02125,-0.0046 -0.03205,-0.0038 z"
       id="path4265"
       inkscape:connector-curvature="0" />
    <path
       style="fill:#808080;stroke:#808080;stroke-width:0.07293447"
       d="m 33.380813,41.047448 c -0.989292,0.55767 -2.240457,0.681008 -3.026638,1.579772 -0.875596,0.876519 -1.211123,2.224808 -0.822972,3.402012 0.337452,1.407279 1.748446,2.562243 3.19092,2.396848 1.615248,-0.06011 2.933762,-1.528956 3.06678,-3.088847 0.136564,-0.889589 0.424197,-1.937915 -0.255384,-2.689928 -0.580897,-0.671162 -1.335557,-1.195277 -2.120655,-1.596011 -0.01049,-0.0022 -0.02125,-0.0046 -0.03205,-0.0038 z"
       id="path4267"
       inkscape:connector-curvature="0" />
    <path
       style="fill:#808080;stroke:#808080;stroke-width:0.07293447"
       d="m 33.380813,41.047448 c -0.989292,0.55767 -2.240457,0.681008 -3.026638,1.579772 -0.875596,0.876519 -1.211123,2.224808 -0.822972,3.402012 0.337452,1.407279 1.748446,2.562243 3.19092,2.396848 1.615248,-0.06011 2.933762,-1.528956 3.06678,-3.088847 0.136564,-0.889589 0.424197,-1.937915 -0.255384,-2.689928 -0.580897,-0.671162 -1.335557,-1.195277 -2.120655,-1.596011 -0.01049,-0.0022 -0.02125,-0.0046 -0.03205,-0.0038 z"
       id="path4269"
       inkscape:connector-curvature="0" />
    <path
       style="fill:#808080;stroke:#808080;stroke-width:0.07293447"
       d="m 33.380813,41.047448 c -0.989292,0.55767 -2.240457,0.681008 -3.026638,1.579772 -0.875596,0.876519 -1.211123,2.224808 -0.822972,3.402012 0.337452,1.407279 1.748446,2.562243 3.19092,2.396848 1.615248,-0.06011 2.933762,-1.528956 3.06678,-3.088847 0.136564,-0.889589 0.424197,-1.937915 -0.255384,-2.689928 -0.580897,-0.671162 -1.335557,-1.195277 -2.120655,-1.596011 -0.01049,-0.0022 -0.02125,-0.0046 -0.03205,-0.0038 z"
       id="path4271"
       inkscape:connector-curvature="0" />
    <path
       style="fill:#808080;stroke:#808080;stroke-width:0.07293447"
       d="m 33.380813,41.047448 c -0.989292,0.55767 -2.240457,0.681008 -3.026638,1.579772 -0.875596,0.876519 -1.211123,2.224808 -0.822972,3.402012 0.337452,1.407279 1.748446,2.562243 3.19092,2.396848 1.615248,-0.06011 2.933762,-1.528956 3.06678,-3.088847 0.136564,-0.889589 0.424197,-1.937915 -0.255384,-2.689928 -0.580897,-0.671162 -1.335557,-1.195277 -2.120655,-1.596011 -0.01049,-0.0022 -0.02125,-0.0046 -0.03205,-0.0038 z"
       id="path4273"
       inkscape:connector-curvature="0" />
    <path
       style="fill:#808080;stroke:#808080;stroke-width:0.07293447"
       d="m 33.411582,41.37665 c -0.997521,0.512939 -2.236367,0.659302 -2.970798,1.599715 -0.935452,1.019867 -0.984779,2.620393 -0.278146,3.778206 0.576118,1.034155 1.832298,1.60148 2.986408,1.317378 1.333859,-0.299173 2.264068,-1.571498 2.365528,-2.902991 0.127937,-0.812155 0.37744,-1.78689 -0.301425,-2.437607 -0.510632,-0.552301 -1.158328,-0.981597 -1.801567,-1.354701 z"
       id="path4275"
       inkscape:connector-curvature="0" />
    <path
       style="fill:#b3b3b3;stroke:#b3b3b3;stroke-width:0.10314492"
       d="M 32.892479,8.4049462 C 32.145099,8.5272174 31.953742,9.4542929 31.579428,9.9929908 29.134194,14.714802 25.621865,18.78713 23.199916,23.5249 c -1.708674,3.286283 -3.433534,6.563525 -5.583471,9.58761 -2.164878,3.185272 -4.505227,6.270654 -6.230077,9.729784 -1.4812723,2.929094 -3.4159861,5.584589 -5.1304595,8.377666 -0.2910169,0.420187 -0.5749344,1.184867 0.04573,1.457728 1.3008641,0.167427 2.6253376,-0.138188 3.9316785,-0.175649 4.137865,-0.335249 8.301762,-0.302151 12.439478,0.02565 4.319506,0.266766 8.647792,0.200611 12.969644,0.04354 5.762736,-0.08824 11.528601,-0.243429 17.291452,-0.119231 1.6682,0.08276 3.37418,0.345238 5.041338,0.129997 0.657418,-0.351313 0.228346,-1.174211 0.03561,-1.678431 C 56.565562,47.50095 54.47038,44.430556 52.659491,41.220214 49.852406,36.508053 46.993915,31.823358 44.449877,26.960986 41.432911,21.180545 37.556999,15.906945 34.465266,10.171124 34.034065,9.5742817 33.771262,8.6748739 33.018792,8.4105869 c -0.04176,-0.00646 -0.08416,-0.00748 -0.126313,-0.00564 z m 0.161367,3.7845318 c 2.256252,4.154021 4.919751,8.071689 7.37282,12.109351 2.524536,4.470812 4.816914,9.076594 7.547304,13.432067 2.465143,4.159222 5.018318,8.277654 7.259458,12.561363 -0.240465,0.132836 -0.843908,-0.0249 -1.223823,-0.01575 -5.888024,-0.14081 -11.781214,-0.115038 -17.669828,-0.0076 -4.23893,0.121262 -8.489773,0.282818 -12.726311,0.08542 -4.656998,-0.369881 -9.347021,-0.431354 -14.0035345,-0.08804 0.4508775,-0.949406 1.1870165,-1.944799 1.7598945,-2.896191 1.684612,-2.617314 2.89816,-5.511882 4.698754,-8.054365 2.558471,-3.759985 5.281255,-7.433048 7.378438,-11.485351 1.965528,-3.699769 3.957113,-7.400782 6.434784,-10.790408 1.127887,-1.577028 2.10583,-3.251725 3.154114,-4.878481 l 0.01793,0.028 z"
       id="path4316"
       inkscape:connector-curvature="0" />
    <path
       style="fill:#b3b3b3;stroke:#b3b3b3;stroke-width:0.10314492"
       d="m 32.751461,16.424061 c -0.861423,-0.05436 -1.426719,0.805816 -1.634294,1.517962 0.06083,6.00198 -0.0742,12.010718 0.223506,18.007452 -0.0077,0.924851 0.334292,2.151892 1.406558,2.294571 0.973368,0.06368 1.619957,-1.083393 1.453685,-1.942629 -0.04206,-6.209897 0.06029,-12.423027 -0.11824,-18.630753 -0.08276,-0.63076 -0.626137,-1.339639 -1.331215,-1.246603 z"
       id="path4318"
       inkscape:connector-curvature="0" />
    <path
       style="fill:#b3b3b3;stroke:#b3b3b3;stroke-width:0.10314492"
       d="m 32.840907,40.839995 c -0.947448,0.408064 -2.01443,0.654237 -2.742003,1.449871 -1.445288,1.345135 -1.481853,3.781422 -0.255444,5.274493 0.912362,1.078506 2.492595,1.70612 3.845774,1.100951 1.438246,-0.482506 2.384608,-1.889541 2.531684,-3.368528 0.184125,-0.964636 0.37457,-2.098606 -0.367857,-2.892893 -0.653684,-0.802411 -1.549132,-1.42347 -2.476686,-1.835053 -0.178489,0.09039 -0.356978,0.180773 -0.535468,0.271159 z"
       id="path4320"
       inkscape:connector-curvature="0" />
  </g>
</svg>
